<mxfile host="app.diagrams.net" modified="2023-04-20T16:53:45.087Z" agent="Mozilla/5.0 (Windows NT 6.1; Win64; x64; rv:109.0) Gecko/20100101 Firefox/112.0" etag="BR2PvCHFf4waKvKPzeZQ" version="21.2.1" type="device">
  <diagram name="Страница 1" id="5AL-7-NVuJmE5-o3TJ7P">
    <mxGraphModel dx="749" dy="648" grid="1" gridSize="10" guides="1" tooltips="1" connect="1" arrows="1" fold="1" page="1" pageScale="1" pageWidth="827" pageHeight="1169" math="0" shadow="0">
      <root>
        <mxCell id="0" />
        <mxCell id="1" parent="0" />
        <mxCell id="kx7T9xao3M96RupeugWr-12" value="" style="edgeStyle=orthogonalEdgeStyle;rounded=0;orthogonalLoop=1;jettySize=auto;html=1;" parent="1" source="kx7T9xao3M96RupeugWr-9" target="kx7T9xao3M96RupeugWr-11" edge="1">
          <mxGeometry relative="1" as="geometry" />
        </mxCell>
        <mxCell id="kx7T9xao3M96RupeugWr-9" value="&lt;div&gt;Board start&lt;/div&gt;" style="rounded=1;whiteSpace=wrap;html=1;fillColor=#d5e8d4;strokeColor=#82b366;" parent="1" vertex="1">
          <mxGeometry x="374" y="30" width="80" height="20" as="geometry" />
        </mxCell>
        <mxCell id="kx7T9xao3M96RupeugWr-17" value="" style="edgeStyle=orthogonalEdgeStyle;rounded=0;orthogonalLoop=1;jettySize=auto;html=1;" parent="1" source="kx7T9xao3M96RupeugWr-10" target="kx7T9xao3M96RupeugWr-16" edge="1">
          <mxGeometry relative="1" as="geometry" />
        </mxCell>
        <mxCell id="kx7T9xao3M96RupeugWr-10" value="&lt;div&gt;WiFiManager.start()&lt;/div&gt;" style="rounded=1;whiteSpace=wrap;html=1;fillColor=#ffe6cc;strokeColor=#d79b00;" parent="1" vertex="1">
          <mxGeometry x="354" y="110" width="120" height="20" as="geometry" />
        </mxCell>
        <mxCell id="kx7T9xao3M96RupeugWr-15" value="" style="edgeStyle=orthogonalEdgeStyle;rounded=0;orthogonalLoop=1;jettySize=auto;html=1;" parent="1" source="kx7T9xao3M96RupeugWr-11" target="kx7T9xao3M96RupeugWr-10" edge="1">
          <mxGeometry relative="1" as="geometry" />
        </mxCell>
        <mxCell id="kx7T9xao3M96RupeugWr-11" value="&lt;div&gt;Config WiFiManager&lt;br&gt;&lt;/div&gt;" style="rounded=1;whiteSpace=wrap;html=1;fillColor=#ffe6cc;strokeColor=#d79b00;" parent="1" vertex="1">
          <mxGeometry x="354" y="70" width="120" height="20" as="geometry" />
        </mxCell>
        <mxCell id="kx7T9xao3M96RupeugWr-20" value="" style="edgeStyle=orthogonalEdgeStyle;rounded=0;orthogonalLoop=1;jettySize=auto;html=1;" parent="1" source="kx7T9xao3M96RupeugWr-16" target="kx7T9xao3M96RupeugWr-18" edge="1">
          <mxGeometry relative="1" as="geometry" />
        </mxCell>
        <mxCell id="kx7T9xao3M96RupeugWr-23" value="not" style="edgeLabel;html=1;align=center;verticalAlign=middle;resizable=0;points=[];" parent="kx7T9xao3M96RupeugWr-20" vertex="1" connectable="0">
          <mxGeometry x="0.1405" y="-1" relative="1" as="geometry">
            <mxPoint x="41" y="-9" as="offset" />
          </mxGeometry>
        </mxCell>
        <mxCell id="kx7T9xao3M96RupeugWr-36" value="" style="edgeStyle=orthogonalEdgeStyle;rounded=0;orthogonalLoop=1;jettySize=auto;html=1;" parent="1" source="kx7T9xao3M96RupeugWr-16" target="kx7T9xao3M96RupeugWr-35" edge="1">
          <mxGeometry relative="1" as="geometry">
            <Array as="points">
              <mxPoint x="490" y="160" />
              <mxPoint x="490" y="160" />
            </Array>
          </mxGeometry>
        </mxCell>
        <mxCell id="kx7T9xao3M96RupeugWr-37" value="yes" style="edgeLabel;html=1;align=center;verticalAlign=middle;resizable=0;points=[];" parent="kx7T9xao3M96RupeugWr-36" vertex="1" connectable="0">
          <mxGeometry x="-0.1595" relative="1" as="geometry">
            <mxPoint y="-10" as="offset" />
          </mxGeometry>
        </mxCell>
        <mxCell id="kx7T9xao3M96RupeugWr-46" style="edgeStyle=orthogonalEdgeStyle;rounded=0;orthogonalLoop=1;jettySize=auto;html=1;exitX=1;exitY=0.5;exitDx=0;exitDy=0;entryX=0.5;entryY=0;entryDx=0;entryDy=0;" parent="1" source="kx7T9xao3M96RupeugWr-16" target="kx7T9xao3M96RupeugWr-38" edge="1">
          <mxGeometry relative="1" as="geometry" />
        </mxCell>
        <mxCell id="kx7T9xao3M96RupeugWr-16" value="WiFiAuthData exist?" style="rounded=1;whiteSpace=wrap;html=1;fillColor=#fff2cc;strokeColor=#d6b656;" parent="1" vertex="1">
          <mxGeometry x="354" y="150" width="120" height="20" as="geometry" />
        </mxCell>
        <mxCell id="kx7T9xao3M96RupeugWr-21" value="" style="edgeStyle=orthogonalEdgeStyle;rounded=0;orthogonalLoop=1;jettySize=auto;html=1;" parent="1" source="kx7T9xao3M96RupeugWr-18" target="kx7T9xao3M96RupeugWr-19" edge="1">
          <mxGeometry relative="1" as="geometry" />
        </mxCell>
        <mxCell id="kx7T9xao3M96RupeugWr-18" value="&lt;div align=&quot;center&quot;&gt;Start configuration Access Point.&lt;/div&gt;&lt;div align=&quot;center&quot;&gt;Start config portal http-server.&lt;/div&gt;&lt;div align=&quot;center&quot;&gt;Start optional DNS-server.&lt;/div&gt;" style="rounded=1;whiteSpace=wrap;html=1;fillColor=#ffe6cc;strokeColor=#d79b00;align=center;" parent="1" vertex="1">
          <mxGeometry x="170" y="180" width="180" height="50" as="geometry" />
        </mxCell>
        <mxCell id="kx7T9xao3M96RupeugWr-25" value="" style="edgeStyle=orthogonalEdgeStyle;rounded=0;orthogonalLoop=1;jettySize=auto;html=1;" parent="1" source="kx7T9xao3M96RupeugWr-19" target="kx7T9xao3M96RupeugWr-24" edge="1">
          <mxGeometry relative="1" as="geometry" />
        </mxCell>
        <mxCell id="kx7T9xao3M96RupeugWr-19" value="Setup connection web-page" style="rounded=1;whiteSpace=wrap;html=1;fillColor=#ffe6cc;strokeColor=#d79b00;" parent="1" vertex="1">
          <mxGeometry x="176.25" y="250" width="167.5" height="20" as="geometry" />
        </mxCell>
        <mxCell id="kx7T9xao3M96RupeugWr-31" value="" style="edgeStyle=orthogonalEdgeStyle;rounded=0;orthogonalLoop=1;jettySize=auto;html=1;" parent="1" source="kx7T9xao3M96RupeugWr-24" target="kx7T9xao3M96RupeugWr-30" edge="1">
          <mxGeometry relative="1" as="geometry" />
        </mxCell>
        <mxCell id="a3EfpGQ4I9Wzzct0lUOm-10" value="yes" style="edgeLabel;html=1;align=center;verticalAlign=middle;resizable=0;points=[];" vertex="1" connectable="0" parent="kx7T9xao3M96RupeugWr-31">
          <mxGeometry x="0.2768" relative="1" as="geometry">
            <mxPoint x="-20" y="8" as="offset" />
          </mxGeometry>
        </mxCell>
        <mxCell id="kx7T9xao3M96RupeugWr-24" value="Check connection - OK?" style="rounded=1;whiteSpace=wrap;html=1;fillColor=#fff2cc;strokeColor=#d6b656;" parent="1" vertex="1">
          <mxGeometry x="182.5" y="290" width="155" height="20" as="geometry" />
        </mxCell>
        <mxCell id="kx7T9xao3M96RupeugWr-28" value="" style="endArrow=classic;html=1;rounded=0;exitX=1;exitY=0.5;exitDx=0;exitDy=0;entryX=1;entryY=0.5;entryDx=0;entryDy=0;" parent="1" source="kx7T9xao3M96RupeugWr-24" target="kx7T9xao3M96RupeugWr-19" edge="1">
          <mxGeometry width="50" height="50" relative="1" as="geometry">
            <mxPoint x="340" y="220" as="sourcePoint" />
            <mxPoint x="370" y="240" as="targetPoint" />
            <Array as="points">
              <mxPoint x="370" y="300" />
              <mxPoint x="370" y="260" />
            </Array>
          </mxGeometry>
        </mxCell>
        <mxCell id="kx7T9xao3M96RupeugWr-29" value="not" style="edgeLabel;html=1;align=center;verticalAlign=middle;resizable=0;points=[];" parent="kx7T9xao3M96RupeugWr-28" vertex="1" connectable="0">
          <mxGeometry x="-0.64" y="1" relative="1" as="geometry">
            <mxPoint x="-3" y="-9" as="offset" />
          </mxGeometry>
        </mxCell>
        <mxCell id="kx7T9xao3M96RupeugWr-33" style="edgeStyle=orthogonalEdgeStyle;rounded=0;orthogonalLoop=1;jettySize=auto;html=1;exitX=0.5;exitY=1;exitDx=0;exitDy=0;entryX=0;entryY=0.5;entryDx=0;entryDy=0;" parent="1" source="kx7T9xao3M96RupeugWr-30" target="kx7T9xao3M96RupeugWr-9" edge="1">
          <mxGeometry relative="1" as="geometry">
            <mxPoint x="160" y="40" as="targetPoint" />
            <Array as="points">
              <mxPoint x="260" y="400" />
              <mxPoint x="160" y="400" />
              <mxPoint x="160" y="40" />
            </Array>
          </mxGeometry>
        </mxCell>
        <mxCell id="kx7T9xao3M96RupeugWr-30" value="&lt;div align=&quot;center&quot;&gt;Save WiFiAuthData.&lt;/div&gt;&lt;div align=&quot;center&quot;&gt;Display confirm message.&lt;br&gt;&lt;/div&gt;&lt;div align=&quot;center&quot;&gt;Reboot.&lt;/div&gt;" style="rounded=1;whiteSpace=wrap;html=1;fillColor=#ffe6cc;strokeColor=#d79b00;align=center;" parent="1" vertex="1">
          <mxGeometry x="182.5" y="330" width="155" height="50" as="geometry" />
        </mxCell>
        <mxCell id="kx7T9xao3M96RupeugWr-41" value="" style="edgeStyle=orthogonalEdgeStyle;rounded=0;orthogonalLoop=1;jettySize=auto;html=1;entryX=1;entryY=0.5;entryDx=0;entryDy=0;" parent="1" source="kx7T9xao3M96RupeugWr-35" target="kx7T9xao3M96RupeugWr-18" edge="1">
          <mxGeometry relative="1" as="geometry" />
        </mxCell>
        <mxCell id="kx7T9xao3M96RupeugWr-42" value="not" style="edgeLabel;html=1;align=center;verticalAlign=middle;resizable=0;points=[];" parent="kx7T9xao3M96RupeugWr-41" vertex="1" connectable="0">
          <mxGeometry x="-0.3111" y="1" relative="1" as="geometry">
            <mxPoint x="9" y="-11" as="offset" />
          </mxGeometry>
        </mxCell>
        <mxCell id="kx7T9xao3M96RupeugWr-35" value="&lt;div&gt;First connection - OK?&lt;br&gt;&lt;/div&gt;" style="rounded=1;whiteSpace=wrap;html=1;fillColor=#fff2cc;strokeColor=#d6b656;" parent="1" vertex="1">
          <mxGeometry x="433.86" y="195" width="130" height="20" as="geometry" />
        </mxCell>
        <mxCell id="kx7T9xao3M96RupeugWr-44" value="" style="edgeStyle=orthogonalEdgeStyle;rounded=0;orthogonalLoop=1;jettySize=auto;html=1;" parent="1" source="kx7T9xao3M96RupeugWr-38" target="kx7T9xao3M96RupeugWr-43" edge="1">
          <mxGeometry relative="1" as="geometry" />
        </mxCell>
        <mxCell id="kx7T9xao3M96RupeugWr-38" value="Ping gateway" style="rounded=1;whiteSpace=wrap;html=1;fillColor=#ffe6cc;strokeColor=#d79b00;" parent="1" vertex="1">
          <mxGeometry x="591.14" y="195" width="110" height="20" as="geometry" />
        </mxCell>
        <mxCell id="kx7T9xao3M96RupeugWr-49" value="" style="edgeStyle=orthogonalEdgeStyle;rounded=0;orthogonalLoop=1;jettySize=auto;html=1;" parent="1" source="kx7T9xao3M96RupeugWr-43" target="kx7T9xao3M96RupeugWr-48" edge="1">
          <mxGeometry relative="1" as="geometry">
            <Array as="points">
              <mxPoint x="646.28" y="280" />
              <mxPoint x="646.28" y="280" />
            </Array>
          </mxGeometry>
        </mxCell>
        <mxCell id="kx7T9xao3M96RupeugWr-50" value="yes" style="edgeLabel;html=1;align=center;verticalAlign=middle;resizable=0;points=[];" parent="kx7T9xao3M96RupeugWr-49" vertex="1" connectable="0">
          <mxGeometry x="-0.2286" relative="1" as="geometry">
            <mxPoint x="-15" y="-1" as="offset" />
          </mxGeometry>
        </mxCell>
        <mxCell id="a3EfpGQ4I9Wzzct0lUOm-6" value="" style="edgeStyle=orthogonalEdgeStyle;rounded=0;orthogonalLoop=1;jettySize=auto;html=1;entryX=1;entryY=0.5;entryDx=0;entryDy=0;" edge="1" parent="1" source="kx7T9xao3M96RupeugWr-43" target="a3EfpGQ4I9Wzzct0lUOm-5">
          <mxGeometry relative="1" as="geometry">
            <mxPoint x="569.9999999999999" y="260" as="targetPoint" />
          </mxGeometry>
        </mxCell>
        <mxCell id="a3EfpGQ4I9Wzzct0lUOm-7" value="not" style="edgeLabel;html=1;align=center;verticalAlign=middle;resizable=0;points=[];" vertex="1" connectable="0" parent="a3EfpGQ4I9Wzzct0lUOm-6">
          <mxGeometry x="-0.2708" y="1" relative="1" as="geometry">
            <mxPoint x="5" y="-11" as="offset" />
          </mxGeometry>
        </mxCell>
        <mxCell id="kx7T9xao3M96RupeugWr-43" value="Ping - OK?" style="rounded=1;whiteSpace=wrap;html=1;fillColor=#fff2cc;strokeColor=#d6b656;" parent="1" vertex="1">
          <mxGeometry x="591.14" y="250" width="110" height="20" as="geometry" />
        </mxCell>
        <mxCell id="kx7T9xao3M96RupeugWr-51" style="edgeStyle=orthogonalEdgeStyle;rounded=0;orthogonalLoop=1;jettySize=auto;html=1;exitX=1;exitY=0.5;exitDx=0;exitDy=0;entryX=1;entryY=0.5;entryDx=0;entryDy=0;" parent="1" source="kx7T9xao3M96RupeugWr-48" target="kx7T9xao3M96RupeugWr-38" edge="1">
          <mxGeometry relative="1" as="geometry">
            <mxPoint x="741.28" y="210" as="targetPoint" />
            <Array as="points">
              <mxPoint x="730" y="320" />
              <mxPoint x="730" y="205" />
            </Array>
          </mxGeometry>
        </mxCell>
        <mxCell id="kx7T9xao3M96RupeugWr-48" value="&lt;div&gt;Disable configuration Access Point &lt;b&gt;if exist&lt;/b&gt;&lt;br&gt;&lt;/div&gt;" style="rounded=1;whiteSpace=wrap;html=1;fillColor=#ffe6cc;strokeColor=#d79b00;" parent="1" vertex="1">
          <mxGeometry x="576.14" y="300" width="140" height="40" as="geometry" />
        </mxCell>
        <mxCell id="a3EfpGQ4I9Wzzct0lUOm-9" style="edgeStyle=orthogonalEdgeStyle;rounded=0;orthogonalLoop=1;jettySize=auto;html=1;exitX=0.5;exitY=1;exitDx=0;exitDy=0;entryX=1;entryY=0.5;entryDx=0;entryDy=0;jumpStyle=none;startArrow=none;startFill=0;" edge="1" parent="1" source="a3EfpGQ4I9Wzzct0lUOm-5" target="kx7T9xao3M96RupeugWr-38">
          <mxGeometry relative="1" as="geometry">
            <Array as="points">
              <mxPoint x="499" y="360" />
              <mxPoint x="740" y="360" />
              <mxPoint x="740" y="205" />
            </Array>
          </mxGeometry>
        </mxCell>
        <mxCell id="a3EfpGQ4I9Wzzct0lUOm-5" value="Restart Wi-Fi" style="rounded=1;whiteSpace=wrap;html=1;fillColor=#f8cecc;strokeColor=#b85450;gradientColor=#ea6b66;" vertex="1" parent="1">
          <mxGeometry x="433.86" y="250" width="130" height="20" as="geometry" />
        </mxCell>
      </root>
    </mxGraphModel>
  </diagram>
</mxfile>
